<svg xmlns="http://www.w3.org/2000/svg" width="100%" height="100%" viewBox="0 0 24 24" fill="none">
  <mask id="mask0_326_2924" style="mask-type:alpha" maskUnits="userSpaceOnUse" x="0" y="0" width="24" height="24">
    <rect width="24" height="24" fill="currentColor"/>
  </mask>
  <g mask="url(#mask0_326_2924)">
    <path d="M9.725 11.558L17.075 18.9623C17.325 19.2142 17.4458 19.508 17.4375 19.8438C17.4292 20.1796 17.3 20.4734 17.05 20.7253C16.8 20.9771 16.5083 21.103 16.175 21.103C15.8417 21.103 15.55 20.9771 15.3 20.7253L7.6 12.9935C7.4 12.7921 7.25 12.5654 7.15 12.3136C7.05 12.0617 7 11.8099 7 11.558C7 11.3062 7.05 11.0543 7.15 10.8025C7.25 10.5506 7.4 10.324 7.6 10.1225L15.3 2.36558C15.55 2.11374 15.8458 1.99201 16.1875 2.00041C16.5292 2.0088 16.825 2.13892 17.075 2.39077C17.325 2.64262 17.45 2.93644 17.45 3.27224C17.45 3.60803 17.325 3.90185 17.075 4.1537L9.725 11.558Z" fill="currentColor"/>
  </g>
</svg>