<svg xmlns="http://www.w3.org/2000/svg" width="20" height="20" viewBox="0 0 20 20" fill="none">
<mask id="mask0_322_4714" style="mask-type:alpha" maskUnits="userSpaceOnUse" x="0" y="0" width="20" height="20">
<rect width="20" height="20" fill="#D9D9D9"/>
</mask>
<g mask="url(#mask0_322_4714)">
<path d="M5.41665 16.6667C4.15276 16.6667 3.0729 16.2292 2.17706 15.3542C1.28123 14.4792 0.833313 13.4098 0.833313 12.1459C0.833313 11.0625 1.1597 10.0973 1.81248 9.25004C2.46526 8.40282 3.31942 7.86115 4.37498 7.62504C4.7222 6.34726 5.41665 5.31254 6.45831 4.52087C7.49998 3.72921 8.68054 3.33337 9.99998 3.33337C11.625 3.33337 13.0035 3.89935 14.1354 5.03129C15.2673 6.16324 15.8333 7.54171 15.8333 9.16671C16.7916 9.27782 17.5868 9.69101 18.2187 10.4063C18.8507 11.1216 19.1666 11.9584 19.1666 12.9167C19.1666 13.9584 18.8021 14.8438 18.0729 15.573C17.3437 16.3021 16.4583 16.6667 15.4166 16.6667H5.41665ZM5.41665 15H15.4166C16 15 16.493 14.7987 16.8958 14.3959C17.2986 13.9931 17.5 13.5 17.5 12.9167C17.5 12.3334 17.2986 11.8403 16.8958 11.4375C16.493 11.0348 16 10.8334 15.4166 10.8334H14.1666V9.16671C14.1666 8.01393 13.7604 7.03129 12.9479 6.21879C12.1354 5.40629 11.1528 5.00004 9.99998 5.00004C8.8472 5.00004 7.86456 5.40629 7.05206 6.21879C6.23956 7.03129 5.83331 8.01393 5.83331 9.16671H5.41665C4.61109 9.16671 3.92359 9.45143 3.35415 10.0209C2.7847 10.5903 2.49998 11.2778 2.49998 12.0834C2.49998 12.8889 2.7847 13.5764 3.35415 14.1459C3.92359 14.7153 4.61109 15 5.41665 15Z" fill="#EABF17"/>
</g>
</svg>