<svg xmlns="http://www.w3.org/2000/svg" width="100%" height="100%" viewBox="0 0 24 24" fill="none">
  <mask id="mask0_322_4369" style="mask-type:alpha" maskUnits="userSpaceOnUse" x="0" y="0" width="24" height="24">
    <rect width="24" height="24" fill="#D9D9D9"/>
  </mask>
  <g mask="url(#mask0_322_4369)">
    <path d="M6.99976 21C6.44976 21 5.97892 20.8042 5.58726 20.4125C5.19559 20.0208 4.99976 19.55 4.99976 19V6C4.71642 6 4.47892 5.90417 4.28726 5.7125C4.09559 5.52083 3.99976 5.28333 3.99976 5C3.99976 4.71667 4.09559 4.47917 4.28726 4.2875C4.47892 4.09583 4.71642 4 4.99976 4H8.99976C8.99976 3.71667 9.09559 3.47917 9.28726 3.2875C9.47892 3.09583 9.71642 3 9.99976 3H13.9998C14.2831 3 14.5206 3.09583 14.7123 3.2875C14.9039 3.47917 14.9998 3.71667 14.9998 4H18.9998C19.2831 4 19.5206 4.09583 19.7123 4.2875C19.9039 4.47917 19.9998 4.71667 19.9998 5C19.9998 5.28333 19.9039 5.52083 19.7123 5.7125C19.5206 5.90417 19.2831 6 18.9998 6V19C18.9998 19.55 18.8039 20.0208 18.4123 20.4125C18.0206 20.8042 17.5498 21 16.9998 21H6.99976ZM16.9998 6H6.99976V19H16.9998V6ZM9.99976 17C10.2831 17 10.5206 16.9042 10.7123 16.7125C10.9039 16.5208 10.9998 16.2833 10.9998 16V9C10.9998 8.71667 10.9039 8.47917 10.7123 8.2875C10.5206 8.09583 10.2831 8 9.99976 8C9.71642 8 9.47892 8.09583 9.28726 8.2875C9.09559 8.47917 8.99976 8.71667 8.99976 9V16C8.99976 16.2833 9.09559 16.5208 9.28726 16.7125C9.47892 16.9042 9.71642 17 9.99976 17ZM13.9998 17C14.2831 17 14.5206 16.9042 14.7123 16.7125C14.9039 16.5208 14.9998 16.2833 14.9998 16V9C14.9998 8.71667 14.9039 8.47917 14.7123 8.2875C14.5206 8.09583 14.2831 8 13.9998 8C13.7164 8 13.4789 8.09583 13.2873 8.2875C13.0956 8.47917 12.9998 8.71667 12.9998 9V16C12.9998 16.2833 13.0956 16.5208 13.2873 16.7125C13.4789 16.9042 13.7164 17 13.9998 17Z" fill="currentColor"/>
  </g>
</svg>