<svg xmlns="http://www.w3.org/2000/svg" width="100%" height="100%" viewBox="0 0 24 24" fill="none">
  <mask id="mask0_278_527" style="mask-type:alpha" maskUnits="userSpaceOnUse" x="0" y="0" width="24" height="24">
    <rect width="24" height="24" fill="#D9D9D9"/>
  </mask>
  <g mask="url(#mask0_278_527)">
    <path d="M19 12.9999L17 12.9999C16.7167 12.9999 16.4792 12.9041 16.2875 12.7124C16.0958 12.5208 16 12.2833 16 11.9999C16 11.7166 16.0958 11.4791 16.2875 11.2874C16.4792 11.0958 16.7167 10.9999 17 10.9999L19 10.9999C19.2833 10.9999 19.5208 11.0958 19.7125 11.2874C19.9042 11.4791 20 11.7166 20 11.9999C20 12.2833 19.9042 12.5208 19.7125 12.7124C19.5208 12.9041 19.2833 12.9999 19 12.9999ZM14.6 16.7999C14.7667 16.5666 14.9833 16.4333 15.25 16.3999C15.5167 16.3666 15.7667 16.4333 16 16.5999L17.6 17.7999C17.8333 17.9666 17.9667 18.1833 18 18.4499C18.0333 18.7166 17.9667 18.9666 17.8 19.1999C17.6333 19.4333 17.4167 19.5666 17.15 19.5999C16.8833 19.6333 16.6333 19.5666 16.4 19.3999L14.8 18.1999C14.5667 18.0333 14.4333 17.8166 14.4 17.5499C14.3667 17.2833 14.4333 17.0333 14.6 16.7999ZM17.6 6.19994L16 7.39994C15.7667 7.5666 15.5167 7.63327 15.25 7.59993C14.9833 7.5666 14.7667 7.43327 14.6 7.19994C14.4333 6.9666 14.3667 6.7166 14.4 6.44994C14.4333 6.18327 14.5667 5.9666 14.8 5.79993L16.4 4.59993C16.6333 4.43327 16.8833 4.3666 17.15 4.39993C17.4167 4.43327 17.6333 4.5666 17.8 4.79993C17.9667 5.03327 18.0333 5.28327 18 5.54993C17.9667 5.8166 17.8333 6.03327 17.6 6.19994ZM7 14.9999L4 14.9999C3.71667 14.9999 3.47917 14.9041 3.2875 14.7124C3.09583 14.5208 3 14.2833 3 13.9999L3 9.99993C3 9.7166 3.09583 9.4791 3.2875 9.28744C3.47917 9.09577 3.71667 8.99993 4 8.99993L7 8.99993L10.3 5.69993C10.6167 5.38327 10.9792 5.31243 11.3875 5.48743C11.7958 5.66243 12 5.97494 12 6.42494L12 17.5749C12 18.0249 11.7958 18.3374 11.3875 18.5124C10.9792 18.6874 10.6167 18.6166 10.3 18.2999L7 14.9999ZM10 8.84994L7.85 10.9999L5 10.9999L5 12.9999L7.85 12.9999L10 15.1499L10 8.84994Z" fill="currentColor"/>
  </g>
</svg>