<svg xmlns="http://www.w3.org/2000/svg" width="20" height="20" viewBox="0 0 20 20" fill="none">
<mask id="mask0_322_4724" style="mask-type:alpha" maskUnits="userSpaceOnUse" x="0" y="0" width="20" height="20">
<rect width="20" height="20" fill="#D9D9D9"/>
</mask>
<g mask="url(#mask0_322_4724)">
<path d="M9.16669 14.875L7.02085 16.9791C6.86808 17.1319 6.6771 17.2083 6.44794 17.2083C6.21877 17.2083 6.0278 17.125 5.87502 16.9583C5.70835 16.8055 5.62502 16.6145 5.62502 16.3854C5.62502 16.1562 5.70835 15.9583 5.87502 15.7916L9.16669 12.5V10.8333H7.50002L4.18752 14.1458C4.03474 14.2986 3.84377 14.375 3.6146 14.375C3.38544 14.375 3.18752 14.2916 3.02085 14.125C2.86808 13.9722 2.79169 13.7812 2.79169 13.552C2.79169 13.3229 2.86808 13.1319 3.02085 12.9791L5.12502 10.8333H2.47919C2.24308 10.8333 2.04863 10.7534 1.89585 10.5937C1.74308 10.434 1.66669 10.2361 1.66669 9.99996C1.66669 9.76385 1.74655 9.56593 1.90627 9.40621C2.06599 9.24649 2.26391 9.16663 2.50002 9.16663H5.12502L3.02085 7.04163C2.86808 6.88885 2.79169 6.69788 2.79169 6.46871C2.79169 6.23954 2.87502 6.04163 3.04169 5.87496C3.19446 5.72218 3.38544 5.64579 3.6146 5.64579C3.84377 5.64579 4.04169 5.72218 4.20835 5.87496L7.50002 9.16663H9.16669V7.49996L5.85419 4.20829C5.70141 4.05551 5.62502 3.86454 5.62502 3.63538C5.62502 3.40621 5.70835 3.20829 5.87502 3.04163C6.0278 2.88885 6.21877 2.81246 6.44794 2.81246C6.6771 2.81246 6.86808 2.88885 7.02085 3.04163L9.16669 5.12496V2.49996C9.16669 2.26385 9.24655 2.06593 9.40627 1.90621C9.56599 1.74649 9.76391 1.66663 10 1.66663C10.2361 1.66663 10.434 1.74649 10.5938 1.90621C10.7535 2.06593 10.8334 2.26385 10.8334 2.49996V5.12496L12.9584 3.04163C13.1111 2.88885 13.3021 2.81246 13.5313 2.81246C13.7604 2.81246 13.9584 2.88885 14.125 3.04163C14.2778 3.20829 14.3542 3.40621 14.3542 3.63538C14.3542 3.86454 14.2778 4.05551 14.125 4.20829L10.8334 7.49996V9.16663H12.5L15.7917 5.87496C15.9445 5.72218 16.1354 5.64579 16.3646 5.64579C16.5938 5.64579 16.7917 5.72913 16.9584 5.89579C17.1111 6.04857 17.1875 6.23954 17.1875 6.46871C17.1875 6.69788 17.1111 6.88885 16.9584 7.04163L14.875 9.16663H17.5C17.7361 9.16663 17.934 9.24649 18.0938 9.40621C18.2535 9.56593 18.3334 9.76385 18.3334 9.99996C18.3334 10.2361 18.2535 10.434 18.0938 10.5937C17.934 10.7534 17.7361 10.8333 17.5 10.8333H14.875L16.9584 12.9791C17.1111 13.1319 17.1875 13.3229 17.1875 13.552C17.1875 13.7812 17.1111 13.9722 16.9584 14.125C16.7917 14.2916 16.5938 14.375 16.3646 14.375C16.1354 14.375 15.9445 14.2916 15.7917 14.125L12.5 10.8333H10.8334V12.5L14.125 15.8125C14.2778 15.9652 14.3542 16.1562 14.3542 16.3854C14.3542 16.6145 14.2709 16.8125 14.1042 16.9791C13.9514 17.1319 13.7604 17.2083 13.5313 17.2083C13.3021 17.2083 13.1111 17.1319 12.9584 16.9791L10.8334 14.875V17.5208C10.8334 17.7569 10.7535 17.9513 10.5938 18.1041C10.434 18.2569 10.2361 18.3333 10 18.3333C9.76391 18.3333 9.56599 18.2534 9.40627 18.0937C9.24655 17.934 9.16669 17.7361 9.16669 17.5V14.875Z" fill="#EABF17"/>
</g>
</svg>