<svg width="67" height="67" viewBox="0 0 67 67" fill="none" xmlns="http://www.w3.org/2000/svg">
<circle cx="33.9319" cy="33.0681" r="26" transform="rotate(15 33.9319 33.0681)" stroke="#B7B7B7" stroke-opacity="0.5" stroke-width="2"/>
<path d="M12.8202 19.1289L60.1506 31.811" stroke="#B7B7B7" stroke-opacity="0.5" stroke-width="2"/>
<line x1="7.97198" y1="33.359" x2="56.2683" y2="46.3" stroke="#B7B7B7" stroke-opacity="0.5" stroke-width="2"/>
<path d="M18.2616 29.7564C18.679 30.2503 19.2479 30.5611 19.8113 30.6841C20.938 30.9301 21.2573 30.5032 21.5359 29.7766C20.3292 30.003 18.3908 29.3438 18.2986 28.3315C18.1848 27.0524 19.1589 25.9903 21.0192 26.4888C22.6188 26.9174 23.0245 27.9765 22.4903 29.6224C22.0691 30.9164 21.3201 31.8338 19.7627 31.4911C19.0058 31.3255 18.2961 30.949 17.7355 30.3982L18.2616 29.7564ZM19.1888 28.1041C19.2527 28.9784 21.6651 29.364 21.8449 28.7972C22.0917 28.0154 21.5746 27.4762 20.8096 27.2712C19.5491 26.9335 19.1294 27.3521 19.1888 28.1041ZM22.8584 30.3825L23.054 29.6523L25.5838 30.3301L25.6164 30.2084C23.7694 29.6949 23.2121 29.3406 23.3402 28.8624C23.473 28.3669 24.2174 28.3707 26.3212 28.9344C28.4163 29.4958 29.028 29.8554 28.8953 30.3509C28.7695 30.8203 28.1729 30.8561 26.4858 30.4413L26.4531 30.5631L29.1046 31.2735L29.7359 28.9176L30.6052 29.1506L30.5586 29.3244L31.4714 29.569L31.2501 30.3949L30.3373 30.1503L29.4894 33.3147C29.3003 33.9162 28.4474 34.0045 25.8568 33.3103C23.2575 32.6138 22.5566 32.0999 22.7243 31.474C22.8967 30.8307 23.8041 30.7477 26.3599 31.4326C27.5422 31.7493 28.3344 32.0268 28.8297 32.2993L28.9089 32.0038L22.8584 30.3825ZM23.6612 28.0819L23.8242 27.4734L26.0671 28.0743L26.1253 27.857L26.9947 28.0899L26.9364 28.3073L29.1793 28.9083L29.0163 29.5168L23.6612 28.0819ZM24.2183 29.0977C24.2066 29.1412 24.1996 29.1672 26.1208 29.682C28.0073 30.1875 28.0143 30.1614 28.0259 30.118C28.0329 30.0919 28.0509 30.0594 26.1558 29.5516C24.2346 29.0368 24.2252 29.0716 24.2183 29.0977ZM23.5936 31.7069C23.5797 31.7591 23.8647 31.9473 26.0641 32.5366C28.2722 33.1283 28.6131 33.1078 28.6271 33.0556C28.6411 33.0035 28.3607 32.7979 26.1526 32.2063C23.9619 31.6193 23.6076 31.6548 23.5936 31.7069ZM33.9551 30.9892L34.1648 30.2068L39.3025 31.5835L39.0929 32.3659L36.9543 31.7929L36.8751 32.0884C37.1368 32.3635 37.7601 32.8194 38.9698 33.451L38.5863 34.1868C37.3743 33.5639 36.6537 33.054 36.2825 32.6657C35.7593 32.8796 34.849 33.0084 33.4617 32.9348L33.4975 32.1058C34.8958 32.173 35.6577 32.0418 36.0075 31.8839L36.0937 31.5623L33.9551 30.9892ZM33.266 34.1868L33.4897 33.3523L39.2186 34.8873L40.0758 31.6882L40.9451 31.9211L40.8985 32.095L41.7505 32.3233L41.5292 33.1491L40.6772 32.9209L39.9831 35.5115L39.9744 35.5091L39.6157 36.8479L38.7463 36.615L38.9863 35.7196L33.266 34.1868ZM41.5135 34.9339L41.7161 34.1776L48.8099 36.0783L48.6072 36.8347L45.495 36.0007L45.4508 36.1659L48.4152 36.9602L48.117 38.073C47.7918 38.0697 42.9539 37.0343 42.022 36.7566L41.9988 36.8436L48.0928 38.4764L47.9297 39.085L40.9664 37.2192L41.3065 35.9499C43.6189 36.5695 46.9068 37.3387 47.3735 37.3706L47.3968 37.2837L41.4643 35.7779L41.6344 35.1433L44.5814 35.933L44.6257 35.7678L41.5135 34.9339ZM41.9366 34.0503L42.4048 32.3029L49.0639 34.0872L48.5957 35.8346L41.9366 34.0503ZM43.0062 33.5356L47.9267 34.854L47.9942 34.6019L43.0738 33.2835L43.0062 33.5356Z" fill="#CCCBCA"/>
</svg>
