<svg xmlns="http://www.w3.org/2000/svg" width="20" height="20" viewBox="0 0 20 20" fill="none">
<mask id="mask0_322_4703" style="mask-type:alpha" maskUnits="userSpaceOnUse" x="0" y="0" width="20" height="20">
<rect width="20" height="20" fill="#D9D9D9"/>
</mask>
<g mask="url(#mask0_322_4703)">
<path d="M9.99998 4.16671C9.76387 4.16671 9.56595 4.08685 9.40623 3.92712C9.24651 3.7674 9.16665 3.56949 9.16665 3.33337V1.66671C9.16665 1.4306 9.24651 1.23268 9.40623 1.07296C9.56595 0.913235 9.76387 0.833374 9.99998 0.833374C10.2361 0.833374 10.434 0.913235 10.5937 1.07296C10.7535 1.23268 10.8333 1.4306 10.8333 1.66671V3.33337C10.8333 3.56949 10.7535 3.7674 10.5937 3.92712C10.434 4.08685 10.2361 4.16671 9.99998 4.16671ZM14.125 5.87504C13.9722 5.72226 13.8958 5.53129 13.8958 5.30212C13.8958 5.07296 13.9722 4.87504 14.125 4.70837L15.2916 3.52087C15.4583 3.35421 15.6562 3.27087 15.8854 3.27087C16.1146 3.27087 16.3125 3.35421 16.4791 3.52087C16.6319 3.67365 16.7083 3.8681 16.7083 4.10421C16.7083 4.34032 16.6319 4.53476 16.4791 4.68754L15.2916 5.87504C15.1389 6.02782 14.9444 6.10421 14.7083 6.10421C14.4722 6.10421 14.2778 6.02782 14.125 5.87504ZM16.6666 10.8334C16.4305 10.8334 16.2326 10.7535 16.0729 10.5938C15.9132 10.4341 15.8333 10.2362 15.8333 10C15.8333 9.76393 15.9132 9.56601 16.0729 9.40629C16.2326 9.24657 16.4305 9.16671 16.6666 9.16671H18.3333C18.5694 9.16671 18.7673 9.24657 18.9271 9.40629C19.0868 9.56601 19.1666 9.76393 19.1666 10C19.1666 10.2362 19.0868 10.4341 18.9271 10.5938C18.7673 10.7535 18.5694 10.8334 18.3333 10.8334H16.6666ZM9.99998 19.1667C9.76387 19.1667 9.56595 19.0868 9.40623 18.9271C9.24651 18.7674 9.16665 18.5695 9.16665 18.3334V16.6667C9.16665 16.4306 9.24651 16.2327 9.40623 16.073C9.56595 15.9132 9.76387 15.8334 9.99998 15.8334C10.2361 15.8334 10.434 15.9132 10.5937 16.073C10.7535 16.2327 10.8333 16.4306 10.8333 16.6667V18.3334C10.8333 18.5695 10.7535 18.7674 10.5937 18.9271C10.434 19.0868 10.2361 19.1667 9.99998 19.1667ZM4.70831 5.87504L3.52081 4.70837C3.35415 4.54171 3.27081 4.34032 3.27081 4.10421C3.27081 3.8681 3.35415 3.67365 3.52081 3.52087C3.67359 3.3681 3.86804 3.29171 4.10415 3.29171C4.34026 3.29171 4.5347 3.3681 4.68748 3.52087L5.87498 4.70837C6.02776 4.86115 6.10415 5.0556 6.10415 5.29171C6.10415 5.52782 6.02776 5.72226 5.87498 5.87504C5.70831 6.02782 5.51387 6.10421 5.29165 6.10421C5.06942 6.10421 4.87498 6.02782 4.70831 5.87504ZM15.2916 16.4792L14.125 15.2917C13.9722 15.125 13.8958 14.9271 13.8958 14.698C13.8958 14.4688 13.9722 14.2778 14.125 14.125C14.2778 13.9723 14.4687 13.8959 14.6979 13.8959C14.9271 13.8959 15.125 13.9723 15.2916 14.125L16.4791 15.2917C16.6458 15.4445 16.7257 15.6389 16.7187 15.875C16.7118 16.1112 16.6319 16.3125 16.4791 16.4792C16.3125 16.6459 16.1111 16.7292 15.875 16.7292C15.6389 16.7292 15.4444 16.6459 15.2916 16.4792ZM1.66665 10.8334C1.43054 10.8334 1.23262 10.7535 1.0729 10.5938C0.913174 10.4341 0.833313 10.2362 0.833313 10C0.833313 9.76393 0.913174 9.56601 1.0729 9.40629C1.23262 9.24657 1.43054 9.16671 1.66665 9.16671H3.33331C3.56942 9.16671 3.76734 9.24657 3.92706 9.40629C4.08679 9.56601 4.16665 9.76393 4.16665 10C4.16665 10.2362 4.08679 10.4341 3.92706 10.5938C3.76734 10.7535 3.56942 10.8334 3.33331 10.8334H1.66665ZM3.52081 16.4792C3.36804 16.3264 3.29165 16.132 3.29165 15.8959C3.29165 15.6598 3.36804 15.4653 3.52081 15.3125L4.70831 14.125C4.86109 13.9723 5.05206 13.8959 5.28123 13.8959C5.5104 13.8959 5.70831 13.9723 5.87498 14.125C6.04165 14.2917 6.12498 14.4896 6.12498 14.7188C6.12498 14.948 6.04165 15.1459 5.87498 15.3125L4.70831 16.4792C4.54165 16.6459 4.34026 16.7292 4.10415 16.7292C3.86804 16.7292 3.67359 16.6459 3.52081 16.4792ZM9.99998 15C8.61109 15 7.43054 14.5139 6.45831 13.5417C5.48609 12.5695 4.99998 11.3889 4.99998 10C4.99998 8.61115 5.48609 7.4306 6.45831 6.45837C7.43054 5.48615 8.61109 5.00004 9.99998 5.00004C11.3889 5.00004 12.5694 5.48615 13.5416 6.45837C14.5139 7.4306 15 8.61115 15 10C15 11.3889 14.5139 12.5695 13.5416 13.5417C12.5694 14.5139 11.3889 15 9.99998 15ZM9.99998 13.3334C10.9166 13.3334 11.7014 13.007 12.3541 12.3542C13.0069 11.7014 13.3333 10.9167 13.3333 10C13.3333 9.08337 13.0069 8.29865 12.3541 7.64587C11.7014 6.9931 10.9166 6.66671 9.99998 6.66671C9.08331 6.66671 8.29859 6.9931 7.64581 7.64587C6.99304 8.29865 6.66665 9.08337 6.66665 10C6.66665 10.9167 6.99304 11.7014 7.64581 12.3542C8.29859 13.007 9.08331 13.3334 9.99998 13.3334Z" fill="#EABF17"/>
</g>
</svg>